<svg width="414" height="356" viewBox="0 0 414 356" fill="none" xmlns="http://www.w3.org/2000/svg">
<path fill-rule="evenodd" clip-rule="evenodd" d="M66.7638 0L414 72.2803L364.904 148.509L66.7638 87.8289V0ZM0 51.5263V135.842L13.7627 124.717L27.5254 113.592L55.0508 91.3421V7.02632L27.5254 29.2763L13.7627 40.4013L0 51.5263ZM0 161.605V245.921L13.7627 234.796L27.5254 223.671L55.0508 201.421V117.105L27.5254 139.355L13.7627 150.48L0 161.605ZM0 356V271.684L13.7627 260.559L27.5254 249.434L55.0508 227.184V311.5L27.5254 333.75L13.7627 344.875L0 356ZM66.7638 221.329L285.434 269.555L235.385 347.263L66.7638 309.158V221.329ZM350.634 170.666L66.7638 112.421V199.079L300.218 248.943L350.634 170.666Z" fill="#0D21A1"/>
</svg>
